<svg aria-hidden="true" style="width:0;height:0;position:absolute;overflow:hidden" xmlns="http://www.w3.org/2000/svg"><defs><symbol id="icon-star-card" viewBox="0 0 34 32"><path opacity=".1" d="M14.89 2.282c.738-2.267 3.946-2.267 4.682 0l2.08 6.4a2.466 2.466 0 0 0 2.341 1.703h6.732c2.385 0 3.375 3.052 1.447 4.453l-5.447 3.956a2.461 2.461 0 0 0-.888 2.769l-.005-.017 2.08 6.402c.738 2.267-1.858 4.155-3.788 2.752l-5.445-3.956c-.401-.294-.903-.471-1.447-.471s-1.047.176-1.454.475l.007-.005-5.445 3.956c-1.93 1.403-4.524-.485-3.788-2.752l2.08-6.4a2.459 2.459 0 0 0-.887-2.75l-.007-.005-5.447-3.956c-1.927-1.403-.935-4.455 1.447-4.455h6.732A2.463 2.463 0 0 0 12.803 8.7l.005-.017 2.082-6.4z"/></symbol><symbol id="icon-pagination" viewBox="0 0 104 32"><path d="M17.44 24.96c-3.2 0-5.864-1.016-8-3.04a10.524 10.524 0 0 1-3.041-7.414l.001-.111v.006c0-2.984 1.016-5.496 3.04-7.52 2.136-2.136 4.8-3.2 8-3.2s5.816 1.064 7.84 3.2c2.024 2.024 3.04 4.536 3.04 7.52 0 2.88-1.016 5.384-3.04 7.52-2.024 2.024-4.64 3.04-7.84 3.04zm34.688 0c-3.2 0-5.864-1.016-8-3.04a10.524 10.524 0 0 1-3.041-7.414l.001-.111v.006c0-2.984 1.016-5.496 3.04-7.52 2.136-2.136 4.8-3.2 8-3.2s5.816 1.064 7.84 3.2c2.024 2.024 3.04 4.536 3.04 7.52 0 2.88-1.016 5.384-3.04 7.52-2.024 2.024-4.64 3.04-7.84 3.04zm34.688 0c-3.2 0-5.872-1.016-8-3.04a10.524 10.524 0 0 1-3.041-7.414l.001-.111v.006c0-2.984 1.016-5.496 3.04-7.52 2.128-2.136 4.8-3.2 8-3.2s5.808 1.064 7.84 3.2c2.024 2.024 3.04 4.536 3.04 7.52 0 2.88-1.016 5.384-3.04 7.52-2.032 2.024-4.64 3.04-7.84 3.04z"/></symbol><symbol id="icon-burger" viewBox="0 0 32 32"><path stroke-linejoin="round" stroke-linecap="round" stroke-width="2" d="M28 13.333H4M28 8H4m24 10.667H4M28 24H4"/></symbol><symbol id="icon-slider" viewBox="0 0 141 32"><path d="M16.218 26.72c-4.058 0-7.418-1.229-10.08-3.68-2.56-2.56-3.84-5.709-3.84-9.44s1.28-6.829 3.84-9.28C8.8 1.76 12.16.48 16.218.48c3.942 0 7.2 1.28 9.76 3.84 2.56 2.451 3.84 5.549 3.84 9.28s-1.28 6.88-3.84 9.44c-2.56 2.451-5.818 3.68-9.76 3.68zM70.579 26.72c-4.051 0-7.411-1.229-10.08-3.68-2.56-2.56-3.84-5.709-3.84-9.44s1.28-6.829 3.84-9.28C63.168 1.76 66.528.48 70.579.48c3.949 0 7.2 1.28 9.76 3.84 2.56 2.451 3.84 5.549 3.84 9.28s-1.28 6.88-3.84 9.44c-2.56 2.451-5.811 3.68-9.76 3.68zm54.362 0c-4.051 0-7.411-1.229-10.08-3.68-2.56-2.56-3.84-5.709-3.84-9.44s1.28-6.829 3.84-9.28c2.669-2.56 6.029-3.84 10.08-3.84 3.949 0 7.2 1.28 9.76 3.84 2.56 2.451 3.84 5.549 3.84 9.28s-1.28 6.88-3.84 9.44c-2.56 2.451-5.811 3.68-9.76 3.68z"/></symbol><symbol id="icon-youtube" viewBox="0 0 32 32"><path d="M23.498 6.186a3.016 3.016 0 0 0-2.122-2.136C19.505 3.545 12 3.545 12 3.545s-7.505 0-9.377.505A3.017 3.017 0 0 0 .502 6.186C0 8.07 0 12 0 12s0 3.93.502 5.814a3.016 3.016 0 0 0 2.122 2.136c1.871.505 9.376.505 9.376.505s7.505 0 9.377-.505a3.015 3.015 0 0 0 2.122-2.136C24 15.93 24 12 24 12s0-3.93-.502-5.814zM9.545 15.568V8.432L15.818 12l-6.273 3.568z"/></symbol><symbol id="icon-arrow-up" viewBox="0 0 32 32"><path d="M397.7 376.1c20.4 20.4 53.6 20.4 74 0s20.4-53.6 0-74L280.5 110.9c-20.4-20.4-53.6-20.4-74 0L15.3 302.1c-20.4 20.4-20.4 53.6 0 74s53.6 20.4 74 0l154.2-154.2 154.2 154.2z"/></symbol><symbol id="icon-heart" viewBox="0 0 32 32"><path fill="none" opacity=".5" stroke="#f8f8f8" style="stroke:var(--color1,#f8f8f8)" stroke-linejoin="round" stroke-linecap="round" stroke-width="2.909" d="M15.991 6.848C13.325 3.731 8.878 2.892 5.54 5.747c-3.341 2.854-3.811 7.625-1.188 11.001 2.182 2.806 8.781 8.724 10.944 10.64.243.214.364.321.505.364a.677.677 0 0 0 .386-.001l-.005.001c.141-.042.262-.15.505-.364 2.163-1.916 8.762-7.834 10.943-10.64 2.624-3.375 2.211-8.177-1.187-11.001-3.398-2.825-7.785-2.016-10.451 1.101z"/></symbol><symbol id="icon-search" viewBox="0 0 32 32"><path d="M28.948 27.054 24 22.147a11.926 11.926 0 0 0 2.639-7.508c0-6.627-5.373-12-12-12s-12 5.373-12 12 5.373 12 12 12c2.852 0 5.472-.995 7.531-2.657l-.023.018 4.907 4.907a1.333 1.333 0 0 0 1.894 0 1.33 1.33 0 0 0-.001-1.853zM14.667 24a9.333 9.333 0 1 1 0-18.666 9.333 9.333 0 1 1 0 18.666z"/></symbol><symbol id="icon-cross" viewBox="0 0 32 32"><path stroke-linejoin="round" stroke-linecap="round" stroke-width="3.556" d="M24 8 8 24M8 8l16 16"/></symbol><symbol id="icon-right-arrow" viewBox="0 0 32 32"><path d="M17.867 16.947c.244-.241.395-.576.395-.947s-.151-.705-.395-.947l-6.12-6.107a1.333 1.333 0 0 1 .94-2.281c.367 0 .699.148.94.388l6.12 6.12c.723.724 1.17 1.723 1.17 2.827s-.447 2.103-1.17 2.827l-6.12 6.12a1.334 1.334 0 1 1-1.88-1.894l6.12-6.107z"/></symbol><symbol id="icon-star-rating" viewBox="0 0 32 32"><path d="M15.411 1.117a.667.667 0 0 1 1.177-.004l.002.004 4.148 7.861c.096.18.268.31.472.346l.004.001 8.759 1.515a.667.667 0 0 1 .363 1.122l-6.195 6.375a.667.667 0 0 0-.181.563v-.004l1.265 8.797a.667.667 0 0 1-.959.692l.004.002-7.976-3.921a.66.66 0 0 0-.594.001l.004-.002-7.976 3.921a.667.667 0 0 1-.955-.697v.004l1.267-8.797a.665.665 0 0 0-.183-.561l-6.195-6.373a.665.665 0 0 1 .36-1.122l.004-.001 8.759-1.515a.667.667 0 0 0 .474-.343l.002-.004 4.147-7.861z"/></symbol><symbol id="icon-left-arrow" viewBox="0 0 32 32"><path opacity=".5" d="M14.133 16.947a1.326 1.326 0 0 1-.288-1.469l-.003.009c.071-.169.17-.313.292-.433l6.12-6.107a1.335 1.335 0 1 0-1.879-1.894l-.001.001-6.12 6.12c-.723.724-1.17 1.723-1.17 2.827s.447 2.103 1.17 2.827l6.12 6.12a1.334 1.334 0 1 0 1.88-1.894l-6.12-6.107z"/></symbol><symbol id="icon-cart" viewBox="0 0 32 32"><path stroke-linejoin="round" stroke-linecap="round" stroke-width="2.667" d="M12 29.333a1.333 1.333 0 0 0 0-2.666 1.333 1.333 0 0 0 0 2.666zm14.667 0a1.333 1.333 0 0 0 0-2.666 1.333 1.333 0 0 0 0 2.666z"/><path stroke-linejoin="round" stroke-linecap="round" stroke-width="2.4" d="M1.333 1.333h5.333l3.573 17.853a2.671 2.671 0 0 0 2.616 2.147l.054-.001h-.003H25.917a2.668 2.668 0 0 0 2.613-2.13l.003-.017 2.133-11.187H7.999"/></symbol><symbol id="icon-facebook" viewBox="0 0 32 32"><path d="M19 6h5V0h-5c-3.86 0-7 3.14-7 7v3H8v6h4v16h6V16h5l1-6h-6V7c0-.542.458-1 1-1z"/></symbol><symbol id="icon-instagram" viewBox="0 0 32 32"><path d="M16 2.881c4.275 0 4.781.019 6.462.094 1.563.069 2.406.331 2.969.55.72.27 1.334.677 1.836 1.193l.001.001a5.013 5.013 0 0 1 1.188 1.804l.012.034c.219.563.481 1.412.55 2.969.075 1.688.094 2.194.094 6.463s-.019 4.781-.094 6.463c-.069 1.563-.331 2.406-.55 2.969a4.976 4.976 0 0 1-1.193 1.836l-.001.001a5.023 5.023 0 0 1-1.803 1.188l-.034.012c-.563.219-1.413.481-2.969.55-1.688.075-2.194.094-6.463.094s-4.781-.019-6.463-.094c-1.563-.069-2.406-.331-2.969-.55a4.972 4.972 0 0 1-1.837-1.193l-.001-.001a5.023 5.023 0 0 1-1.188-1.803l-.012-.034c-.219-.563-.481-1.413-.55-2.969-.075-1.688-.094-2.194-.094-6.463s.019-4.781.094-6.463c.069-1.563.331-2.406.55-2.969a4.98 4.98 0 0 1 1.193-1.837l.001-.001a5.013 5.013 0 0 1 1.804-1.188l.034-.012c.563-.219 1.412-.481 2.969-.55 1.681-.075 2.188-.094 6.463-.094zM16 0c-4.344 0-4.887.019-6.594.094-1.7.075-2.869.35-3.881.744-1.056.412-1.95.956-2.837 1.85A7.856 7.856 0 0 0 .856 5.465l-.018.054C.444 6.538.169 7.7.094 9.4.019 11.113 0 11.656 0 16s.019 4.887.094 6.594c.075 1.7.35 2.869.744 3.881.413 1.056.956 1.95 1.85 2.837a7.822 7.822 0 0 0 2.778 1.826l.053.018c1.019.394 2.181.669 3.881.744 1.706.075 2.25.094 6.594.094s4.888-.019 6.594-.094c1.7-.075 2.869-.35 3.881-.744 1.05-.406 1.944-.956 2.831-1.844s1.438-1.781 1.844-2.831c.394-1.019.669-2.181.744-3.881.075-1.706.094-2.25.094-6.594s-.019-4.887-.094-6.594c-.075-1.7-.35-2.869-.744-3.881a7.547 7.547 0 0 0-1.829-2.842l-.002-.002A7.827 7.827 0 0 0 26.536.861l-.053-.018C25.464.449 24.302.174 22.602.099c-1.712-.081-2.256-.1-6.6-.1z"/><path d="M16 7.781c-4.537 0-8.219 3.681-8.219 8.219s3.681 8.219 8.219 8.219 8.219-3.681 8.219-8.219A8.22 8.22 0 0 0 16 7.781zm0 13.55a5.332 5.332 0 0 1 0-10.664 5.332 5.332 0 0 1-.001 10.664zM26.462 7.456a1.919 1.919 0 1 1-3.838 0 1.919 1.919 0 1 1 3.838 0z"/></symbol><symbol id="icon-mail2" viewBox="0 0 32 32"><path d="M26.667 0H5.334C2.4 0 0 2.4 0 5.334v21.332C0 29.602 2.4 32 5.334 32h21.333C29.601 32 32 29.602 32 26.666V5.334C32 2.4 29.601 0 26.667 0zm0 4c.25 0 .486.073.688.198L16 13.586 4.645 4.199c.202-.125.439-.198.689-.198h21.333zM5.334 28c-.063 0-.125-.005-.185-.014l.007.001 7.051-9.78-.914-.914L4 24.586V5.488L16 20 28 5.488v19.098l-7.293-7.293-.914.914 7.051 9.78a1.205 1.205 0 0 1-.177.013H5.334z"/></symbol><symbol id="icon-phone" viewBox="0 0 32 32"><path d="M22 20c-2 2-2 4-4 4s-4-2-6-4-4-4-4-6 2-2 4-4-4-8-6-8-6 6-6 6c0 4 4.109 12.109 8 16s12 8 16 8c0 0 6-4 6-6s-6-8-8-6z"/></symbol><symbol id="icon-up"><path xmlns="http://www.w3.org/2000/svg" d="m18.221 7.206 9.585 9.585a2.265 2.265 0 0 1 0 3.195l-.8.801a2.266 2.266 0 0 1-3.194 0l-7.315-7.315-7.315 7.315a2.266 2.266 0 0 1-3.194 0l-.8-.801a2.265 2.265 0 0 1 0-3.195l9.587-9.585a2.24 2.24 0 0 1 1.723-.647 2.247 2.247 0 0 1 1.723.647z"/></symbol><symbol id="icon-phone-3" viewBox="0 0 32 32"><path opacity=".8" stroke-linejoin="round" stroke-linecap="round" stroke-width="2.909" d="M15.991 6.848C13.325 3.731 8.878 2.892 5.54 5.747c-3.341 2.854-3.811 7.625-1.188 11.001 2.182 2.806 8.781 8.724 10.944 10.64.243.214.364.321.505.364a.677.677 0 0 0 .386-.001l-.005.001c.141-.042.262-.15.505-.364 2.163-1.916 8.762-7.834 10.943-10.64 2.624-3.375 2.211-8.177-1.187-11.001-3.398-2.825-7.785-2.016-10.451 1.101z"/></symbol></defs><symbol id="icon-hat"><path fill="#9BB537" d="M19 33h60v46H19V33Z"/><path fill="#9BB537" d="M43 29.5C43 41.374 33.374 51 21.5 51S0 41.374 0 29.5 9.626 8 21.5 8 43 17.626 43 29.5Z"/><path fill="#9BB537" d="M70 21.5C70 33.374 60.374 43 48.5 43S27 33.374 27 21.5 36.626 0 48.5 0 70 9.626 70 21.5Z"/><path fill="#9BB537" d="M97 29.5C97 41.374 87.374 51 75.5 51S54 41.374 54 29.5 63.626 8 75.5 8 97 17.626 97 29.5Z"/><path fill="#F8F8F8" d="M19 76h60v5.28c0 .95-.84 1.72-1.875 1.72h-56.25C19.84 83 19 82.23 19 81.28V76Zm18-49.13c0-1.585 1.12-2.87 2.5-2.87s2.5 1.285 2.5 2.87v13.26c0 1.585-1.12 2.87-2.5 2.87S37 41.715 37 40.13V26.87Zm8 0c0-1.585 1.567-2.87 3.5-2.87s3.5 1.285 3.5 2.87v13.26c0 1.585-1.567 2.87-3.5 2.87S45 41.715 45 40.13V26.87Zm10 0c0-1.585 1.12-2.87 2.5-2.87s2.5 1.285 2.5 2.87v13.26c0 1.585-1.12 2.87-2.5 2.87S55 41.715 55 40.13V26.87Z"/><path fill="#050505" fill-rule="evenodd" d="M73.103 8.121a22.015 22.015 0 0 1 2.278-.117c9.633 0 17.795 6.257 20.59 14.903-.75.078-1.509.118-2.278.118-9.633 0-17.795-6.258-20.59-14.904Z" clip-rule="evenodd"/></symbol></svg>