<svg aria-hidden="true" style="position:absolute;width:0;height:0;overflow:hidden" xmlns="http://www.w3.org/2000/svg"><defs><symbol id="icon-star-card" viewBox="0 0 34 32"><path  opacity=".1" d="M14.89 2.282c.738-2.267 3.946-2.267 4.682 0l2.08 6.4a2.466 2.466 0 0 0 2.341 1.703h6.732c2.385 0 3.375 3.052 1.447 4.453l-5.447 3.956a2.461 2.461 0 0 0-.888 2.769l-.005-.017 2.08 6.402c.738 2.267-1.858 4.155-3.788 2.752l-5.445-3.956c-.401-.294-.903-.471-1.447-.471s-1.047.176-1.454.475l.007-.005-5.445 3.956c-1.93 1.403-4.524-.485-3.788-2.752l2.08-6.4a2.459 2.459 0 0 0-.887-2.75l-.007-.005-5.447-3.956c-1.927-1.403-.935-4.455 1.447-4.455h6.732A2.463 2.463 0 0 0 12.803 8.7l.005-.017 2.082-6.4z"/></symbol><symbol id="icon-pagination" viewBox="0 0 104 32"><path d="M17.44 24.96c-3.2 0-5.864-1.016-8-3.04a10.524 10.524 0 0 1-3.041-7.414l.001-.111v.006c0-2.984 1.016-5.496 3.04-7.52 2.136-2.136 4.8-3.2 8-3.2s5.816 1.064 7.84 3.2c2.024 2.024 3.04 4.536 3.04 7.52 0 2.88-1.016 5.384-3.04 7.52-2.024 2.024-4.64 3.04-7.84 3.04zm34.688 0c-3.2 0-5.864-1.016-8-3.04a10.524 10.524 0 0 1-3.041-7.414l.001-.111v.006c0-2.984 1.016-5.496 3.04-7.52 2.136-2.136 4.8-3.2 8-3.2s5.816 1.064 7.84 3.2c2.024 2.024 3.04 4.536 3.04 7.52 0 2.88-1.016 5.384-3.04 7.52-2.024 2.024-4.64 3.04-7.84 3.04zm34.688 0c-3.2 0-5.872-1.016-8-3.04a10.524 10.524 0 0 1-3.041-7.414l.001-.111v.006c0-2.984 1.016-5.496 3.04-7.52 2.128-2.136 4.8-3.2 8-3.2s5.808 1.064 7.84 3.2c2.024 2.024 3.04 4.536 3.04 7.52 0 2.88-1.016 5.384-3.04 7.52-2.032 2.024-4.64 3.04-7.84 3.04z"/></symbol><symbol id="icon-burger" viewBox="0 0 32 32"><path stroke-linejoin="round" stroke-linecap="round" stroke-width="2" d="M28 13.333H4M28 8H4m24 10.667H4M28 24H4"/></symbol><symbol id="icon-slider" viewBox="0 0 141 32"><path d="M16.218 26.72c-4.058 0-7.418-1.229-10.08-3.68-2.56-2.56-3.84-5.709-3.84-9.44s1.28-6.829 3.84-9.28C8.8 1.76 12.16.48 16.218.48c3.942 0 7.2 1.28 9.76 3.84 2.56 2.451 3.84 5.549 3.84 9.28s-1.28 6.88-3.84 9.44c-2.56 2.451-5.818 3.68-9.76 3.68zM70.579 26.72c-4.051 0-7.411-1.229-10.08-3.68-2.56-2.56-3.84-5.709-3.84-9.44s1.28-6.829 3.84-9.28C63.168 1.76 66.528.48 70.579.48c3.949 0 7.2 1.28 9.76 3.84 2.56 2.451 3.84 5.549 3.84 9.28s-1.28 6.88-3.84 9.44c-2.56 2.451-5.811 3.68-9.76 3.68zm54.362 0c-4.051 0-7.411-1.229-10.08-3.68-2.56-2.56-3.84-5.709-3.84-9.44s1.28-6.829 3.84-9.28c2.669-2.56 6.029-3.84 10.08-3.84 3.949 0 7.2 1.28 9.76 3.84 2.56 2.451 3.84 5.549 3.84 9.28s-1.28 6.88-3.84 9.44c-2.56 2.451-5.811 3.68-9.76 3.68z"/></symbol><symbol id="icon-heart" viewBox="0 0 32 32"><path fill="none" opacity=".5" stroke="#f8f8f8" style="stroke:var(--color1, #f8f8f8)" stroke-linejoin="round" stroke-linecap="round" stroke-width="2.909" d="M15.991 6.848C13.325 3.731 8.878 2.892 5.54 5.747c-3.341 2.854-3.811 7.625-1.188 11.001 2.182 2.806 8.781 8.724 10.944 10.64.243.214.364.321.505.364a.677.677 0 0 0 .386-.001l-.005.001c.141-.042.262-.15.505-.364 2.163-1.916 8.762-7.834 10.943-10.64 2.624-3.375 2.211-8.177-1.187-11.001-3.398-2.825-7.785-2.016-10.451 1.101z"/></symbol><symbol id="icon-search" viewBox="0 0 32 32"><path d="M28.948 27.054 24 22.147a11.926 11.926 0 0 0 2.639-7.508c0-6.627-5.373-12-12-12s-12 5.373-12 12 5.373 12 12 12c2.852 0 5.472-.995 7.531-2.657l-.023.018 4.907 4.907a1.333 1.333 0 0 0 1.894 0 1.33 1.33 0 0 0-.001-1.853zM14.667 24a9.333 9.333 0 1 1 0-18.666 9.333 9.333 0 1 1 0 18.666z"/></symbol><symbol id="icon-cross" viewBox="0 0 32 32"><path stroke-linejoin="round" stroke-linecap="round" stroke-width="3.556" d="M24 8 8 24M8 8l16 16"/></symbol><symbol id="icon-right-arrow" viewBox="0 0 32 32"><path d="M17.867 16.947c.244-.241.395-.576.395-.947s-.151-.705-.395-.947l-6.12-6.107a1.333 1.333 0 0 1 .94-2.281c.367 0 .699.148.94.388l6.12 6.12c.723.724 1.17 1.723 1.17 2.827s-.447 2.103-1.17 2.827l-6.12 6.12a1.334 1.334 0 1 1-1.88-1.894l6.12-6.107z"/></symbol><symbol id="icon-star-rating" viewBox="0 0 32 32"><path  d="M15.411 1.117a.667.667 0 0 1 1.177-.004l.002.004 4.148 7.861c.096.18.268.31.472.346l.004.001 8.759 1.515a.667.667 0 0 1 .363 1.122l-6.195 6.375a.667.667 0 0 0-.181.563v-.004l1.265 8.797a.667.667 0 0 1-.959.692l.004.002-7.976-3.921a.66.66 0 0 0-.594.001l.004-.002-7.976 3.921a.667.667 0 0 1-.955-.697v.004l1.267-8.797a.665.665 0 0 0-.183-.561l-6.195-6.373a.665.665 0 0 1 .36-1.122l.004-.001 8.759-1.515a.667.667 0 0 0 .474-.343l.002-.004 4.147-7.861z"/></symbol><symbol id="icon-left-arrow" viewBox="0 0 32 32"><path opacity=".5" d="M14.133 16.947a1.326 1.326 0 0 1-.288-1.469l-.003.009c.071-.169.17-.313.292-.433l6.12-6.107a1.335 1.335 0 1 0-1.879-1.894l-.001.001-6.12 6.12c-.723.724-1.17 1.723-1.17 2.827s.447 2.103 1.17 2.827l6.12 6.12a1.334 1.334 0 1 0 1.88-1.894l-6.12-6.107z"/></symbol><symbol id="icon-cart" viewBox="0 0 32 32"><path stroke-linejoin="round" stroke-linecap="round" stroke-width="2.667" d="M12 29.333a1.333 1.333 0 0 0 0-2.666 1.333 1.333 0 0 0 0 2.666zm14.667 0a1.333 1.333 0 0 0 0-2.666 1.333 1.333 0 0 0 0 2.666z"/><path stroke-linejoin="round" stroke-linecap="round" stroke-width="2.4" d="M1.333 1.333h5.333l3.573 17.853a2.671 2.671 0 0 0 2.616 2.147l.054-.001h-.003H25.917a2.668 2.668 0 0 0 2.613-2.13l.003-.017 2.133-11.187H7.999"/></symbol></defs></svg>