<svg aria-hidden="true" style="position: absolute; width: 0; height: 0; overflow: hidden;" version="1.1" xmlns="http://www.w3.org/2000/svg" xmlns:xlink="http://www.w3.org/1999/xlink">
<defs>
<symbol id="icon-star-card" viewBox="0 0 34 32">
<path opacity="0.1" d="M14.89 2.282c0.738-2.267 3.946-2.267 4.682 0l2.080 6.4c0.33 0.997 1.253 1.703 2.341 1.703h6.732c2.385 0 3.375 3.052 1.447 4.453l-5.447 3.956c-0.618 0.453-1.014 1.176-1.014 1.991 0 0.272 0.044 0.534 0.126 0.778l-0.005-0.017 2.080 6.402c0.738 2.267-1.858 4.155-3.788 2.752l-5.445-3.956c-0.401-0.294-0.903-0.471-1.447-0.471s-1.047 0.176-1.454 0.475l0.007-0.005-5.445 3.956c-1.93 1.403-4.524-0.485-3.788-2.752l2.080-6.4c0.077-0.228 0.121-0.49 0.121-0.763 0-0.816-0.397-1.539-1.008-1.987l-0.007-0.005-5.447-3.956c-1.927-1.403-0.935-4.455 1.447-4.455h6.732c1.086-0.001 2.007-0.705 2.333-1.681l0.005-0.017 2.082-6.4z"></path>
</symbol>
<symbol id="icon-pagination" viewBox="0 0 104 32">
<path d="M17.44 24.96c-3.2 0-5.864-1.016-8-3.040-1.88-1.906-3.041-4.524-3.041-7.414 0-0.037 0-0.074 0.001-0.111l-0 0.006c0-2.984 1.016-5.496 3.040-7.52 2.136-2.136 4.8-3.2 8-3.2s5.816 1.064 7.84 3.2c2.024 2.024 3.040 4.536 3.040 7.52 0 2.88-1.016 5.384-3.040 7.52-2.024 2.024-4.64 3.040-7.84 3.040zM52.128 24.96c-3.2 0-5.864-1.016-8-3.040-1.88-1.906-3.041-4.524-3.041-7.414 0-0.037 0-0.074 0.001-0.111l-0 0.006c0-2.984 1.016-5.496 3.040-7.52 2.136-2.136 4.8-3.2 8-3.2s5.816 1.064 7.84 3.2c2.024 2.024 3.040 4.536 3.040 7.52 0 2.88-1.016 5.384-3.040 7.52-2.024 2.024-4.64 3.040-7.84 3.040zM86.816 24.96c-3.2 0-5.872-1.016-8-3.040-1.88-1.906-3.041-4.524-3.041-7.414 0-0.037 0-0.074 0.001-0.111l-0 0.006c0-2.984 1.016-5.496 3.040-7.52 2.128-2.136 4.8-3.2 8-3.2s5.808 1.064 7.84 3.2c2.024 2.024 3.040 4.536 3.040 7.52 0 2.88-1.016 5.384-3.040 7.52-2.032 2.024-4.64 3.040-7.84 3.040z"></path>
</symbol>
<symbol id="icon-burger" viewBox="0 0 32 32">
<path stroke-linejoin="round" stroke-linecap="round" stroke-miterlimit="4" stroke-width="2" d="M28 13.333h-24M28 8h-24M28 18.667h-24M28 24h-24"></path>
</symbol>
<symbol id="icon-slider" viewBox="0 0 141 32">
<path d="M16.218 26.72c-4.058 0-7.418-1.229-10.080-3.68-2.56-2.56-3.84-5.709-3.84-9.44s1.28-6.829 3.84-9.28c2.662-2.56 6.022-3.84 10.080-3.84 3.942 0 7.2 1.28 9.76 3.84 2.56 2.451 3.84 5.549 3.84 9.28s-1.28 6.88-3.84 9.44c-2.56 2.451-5.818 3.68-9.76 3.68z"></path>
<path d="M70.579 26.72c-4.051 0-7.411-1.229-10.080-3.68-2.56-2.56-3.84-5.709-3.84-9.44s1.28-6.829 3.84-9.28c2.669-2.56 6.029-3.84 10.080-3.84 3.949 0 7.2 1.28 9.76 3.84 2.56 2.451 3.84 5.549 3.84 9.28s-1.28 6.88-3.84 9.44c-2.56 2.451-5.811 3.68-9.76 3.68zM124.941 26.72c-4.051 0-7.411-1.229-10.080-3.68-2.56-2.56-3.84-5.709-3.84-9.44s1.28-6.829 3.84-9.28c2.669-2.56 6.029-3.84 10.080-3.84 3.949 0 7.2 1.28 9.76 3.84 2.56 2.451 3.84 5.549 3.84 9.28s-1.28 6.88-3.84 9.44c-2.56 2.451-5.811 3.68-9.76 3.68z"></path>
</symbol>
<symbol id="icon-heart" viewBox="0 0 32 32">
<path fill="none" opacity="0.5" stroke="#f8f8f8" style="stroke: var(--color1, #f8f8f8)" stroke-linejoin="round" stroke-linecap="round" stroke-miterlimit="4" stroke-width="2.9091" d="M15.991 6.848c-2.666-3.117-7.113-3.956-10.451-1.101-3.341 2.854-3.811 7.625-1.188 11.001 2.182 2.806 8.781 8.724 10.944 10.64 0.243 0.214 0.364 0.321 0.505 0.364 0.057 0.017 0.123 0.028 0.191 0.028s0.133-0.010 0.195-0.029l-0.005 0.001c0.141-0.042 0.262-0.15 0.505-0.364 2.163-1.916 8.762-7.834 10.943-10.64 2.624-3.375 2.211-8.177-1.187-11.001-3.398-2.825-7.785-2.016-10.451 1.101z"></path>
</symbol>
<symbol id="icon-search" viewBox="0 0 32 32">
<path d="M28.948 27.054l-4.948-4.907c1.644-2.036 2.639-4.656 2.639-7.508 0-6.627-5.373-12-12-12s-12 5.373-12 12c0 6.627 5.373 12 12 12 2.852 0 5.472-0.995 7.531-2.657l-0.023 0.018 4.907 4.907c0.242 0.244 0.577 0.394 0.947 0.394s0.705-0.151 0.947-0.394l0-0c0.232-0.24 0.374-0.566 0.374-0.926s-0.143-0.687-0.375-0.927l0 0zM14.667 24c-5.155 0-9.333-4.179-9.333-9.333s4.179-9.333 9.333-9.333v0c5.155 0 9.333 4.179 9.333 9.333s-4.179 9.333-9.333 9.333v0z"></path>
</symbol>
<symbol id="icon-cross" viewBox="0 0 32 32">
<path stroke-linejoin="round" stroke-linecap="round" stroke-miterlimit="4" stroke-width="3.5556" d="M24 8l-16 16M8 8l16 16"></path>
</symbol>
<symbol id="icon-right-arrow" viewBox="0 0 32 32">
<path d="M17.867 16.947c0.244-0.241 0.395-0.576 0.395-0.947s-0.151-0.705-0.395-0.947l-0-0-6.12-6.107c-0.243-0.242-0.394-0.577-0.394-0.947 0-0.737 0.597-1.334 1.334-1.334 0.367 0 0.699 0.148 0.94 0.388l6.12 6.12c0.723 0.724 1.17 1.723 1.17 2.827s-0.447 2.103-1.17 2.827l-6.12 6.12c-0.241 0.239-0.573 0.387-0.94 0.387-0.737 0-1.334-0.597-1.334-1.334 0-0.37 0.151-0.705 0.394-0.947l0-0 6.12-6.107z"></path>
</symbol>
<symbol id="icon-star-rating" viewBox="0 0 32 32">
<path d="M15.411 1.117c0.114-0.213 0.335-0.355 0.589-0.355s0.475 0.142 0.588 0.351l0.002 0.004 4.148 7.861c0.096 0.18 0.268 0.31 0.472 0.346l0.004 0.001 8.759 1.515c0.316 0.056 0.552 0.329 0.552 0.657 0 0.181-0.072 0.345-0.189 0.465l0-0-6.195 6.375c-0.116 0.12-0.188 0.284-0.188 0.464 0 0.034 0.003 0.067 0.007 0.099l-0-0.004 1.265 8.797c0.004 0.029 0.007 0.062 0.007 0.095 0 0.368-0.298 0.667-0.667 0.667-0.107 0-0.209-0.025-0.299-0.070l0.004 0.002-7.976-3.921c-0.086-0.043-0.187-0.069-0.295-0.069s-0.209 0.025-0.299 0.070l0.004-0.002-7.976 3.921c-0.086 0.043-0.187 0.069-0.295 0.069-0.368 0-0.667-0.298-0.667-0.667 0-0.034 0.003-0.067 0.007-0.099l-0 0.004 1.267-8.797c0.004-0.028 0.007-0.061 0.007-0.095 0-0.181-0.072-0.345-0.19-0.466l-6.195-6.373c-0.117-0.12-0.19-0.284-0.19-0.466 0-0.328 0.237-0.601 0.55-0.656l0.004-0.001 8.759-1.515c0.208-0.037 0.38-0.166 0.474-0.343l0.002-0.004 4.147-7.861z"></path>
</symbol>
<symbol id="icon-left-arrow" viewBox="0 0 32 32">
<path opacity="0.5" d="M14.133 16.947c-0.244-0.241-0.395-0.576-0.395-0.946 0-0.186 0.038-0.362 0.107-0.523l-0.003 0.009c0.071-0.169 0.17-0.313 0.292-0.433l0-0 6.12-6.107c0.26-0.244 0.423-0.59 0.423-0.974 0-0.737-0.598-1.335-1.335-1.335-0.381 0-0.724 0.159-0.967 0.415l-0.001 0.001-6.12 6.12c-0.723 0.724-1.17 1.723-1.17 2.827s0.447 2.103 1.17 2.827l6.12 6.12c0.241 0.239 0.573 0.387 0.94 0.387 0.737 0 1.334-0.597 1.334-1.334 0-0.37-0.151-0.705-0.394-0.947l-0-0-6.12-6.107z"></path>
</symbol>
<symbol id="icon-cart" viewBox="0 0 32 32">
<path stroke-linejoin="round" stroke-linecap="round" stroke-miterlimit="4" stroke-width="2.6667" d="M12 29.333c0.736 0 1.333-0.597 1.333-1.333s-0.597-1.333-1.333-1.333v0c-0.736 0-1.333 0.597-1.333 1.333s0.597 1.333 1.333 1.333v0zM26.667 29.333c0.736 0 1.333-0.597 1.333-1.333s-0.597-1.333-1.333-1.333v0c-0.736 0-1.333 0.597-1.333 1.333s0.597 1.333 1.333 1.333v0z"></path>
<path stroke-linejoin="round" stroke-linecap="round" stroke-miterlimit="4" stroke-width="2.4" d="M1.333 1.333h5.333l3.573 17.853c0.251 1.233 1.327 2.147 2.616 2.147 0.018 0 0.036-0 0.054-0.001l-0.003 0h12.96c0.015 0 0.033 0 0.051 0 1.289 0 2.364-0.914 2.613-2.13l0.003-0.017 2.133-11.187h-22.667"></path>
</symbol>
</defs>
</svg>
