<svg aria-hidden="true" style="position: absolute; width: 0; height: 0; overflow: hidden;" version="1.1" xmlns="http://www.w3.org/2000/svg" xmlns:xlink="http://www.w3.org/1999/xlink">
<defs>
<symbol id="icon-star-card" viewBox="0 0 34 32">
<path opacity="0.1" d="M14.89 2.282c0.738-2.267 3.946-2.267 4.682 0l2.080 6.4c0.33 0.997 1.253 1.703 2.341 1.703h6.732c2.385 0 3.375 3.052 1.447 4.453l-5.447 3.956c-0.618 0.453-1.014 1.176-1.014 1.991 0 0.272 0.044 0.534 0.126 0.778l-0.005-0.017 2.080 6.402c0.738 2.267-1.858 4.155-3.788 2.752l-5.445-3.956c-0.401-0.294-0.903-0.471-1.447-0.471s-1.047 0.176-1.454 0.475l0.007-0.005-5.445 3.956c-1.93 1.403-4.524-0.485-3.788-2.752l2.080-6.4c0.077-0.228 0.121-0.49 0.121-0.763 0-0.816-0.397-1.539-1.008-1.987l-0.007-0.005-5.447-3.956c-1.927-1.403-0.935-4.455 1.447-4.455h6.732c1.086-0.001 2.007-0.705 2.333-1.681l0.005-0.017 2.082-6.4z"></path>
</symbol>
<symbol id="icon-pagination" viewBox="0 0 104 32">
<path d="M17.44 24.96c-3.2 0-5.864-1.016-8-3.040-1.88-1.906-3.041-4.524-3.041-7.414 0-0.037 0-0.074 0.001-0.111l-0 0.006c0-2.984 1.016-5.496 3.040-7.52 2.136-2.136 4.8-3.2 8-3.2s5.816 1.064 7.84 3.2c2.024 2.024 3.040 4.536 3.040 7.52 0 2.88-1.016 5.384-3.040 7.52-2.024 2.024-4.64 3.040-7.84 3.040zM52.128 24.96c-3.2 0-5.864-1.016-8-3.040-1.88-1.906-3.041-4.524-3.041-7.414 0-0.037 0-0.074 0.001-0.111l-0 0.006c0-2.984 1.016-5.496 3.040-7.52 2.136-2.136 4.8-3.2 8-3.2s5.816 1.064 7.84 3.2c2.024 2.024 3.040 4.536 3.040 7.52 0 2.88-1.016 5.384-3.040 7.52-2.024 2.024-4.64 3.040-7.84 3.040zM86.816 24.96c-3.2 0-5.872-1.016-8-3.040-1.88-1.906-3.041-4.524-3.041-7.414 0-0.037 0-0.074 0.001-0.111l-0 0.006c0-2.984 1.016-5.496 3.040-7.52 2.128-2.136 4.8-3.2 8-3.2s5.808 1.064 7.84 3.2c2.024 2.024 3.040 4.536 3.040 7.52 0 2.88-1.016 5.384-3.040 7.52-2.032 2.024-4.64 3.040-7.84 3.040z"></path>
</symbol>
<symbol id="icon-burger" viewBox="0 0 32 32">
<path stroke-linejoin="round" stroke-linecap="round" stroke-miterlimit="4" stroke-width="2" d="M28 13.333h-24M28 8h-24M28 18.667h-24M28 24h-24"></path>
</symbol>
<symbol id="icon-slider" viewBox="0 0 141 32">
<path d="M16.218 26.72c-4.058 0-7.418-1.229-10.080-3.68-2.56-2.56-3.84-5.709-3.84-9.44s1.28-6.829 3.84-9.28c2.662-2.56 6.022-3.84 10.080-3.84 3.942 0 7.2 1.28 9.76 3.84 2.56 2.451 3.84 5.549 3.84 9.28s-1.28 6.88-3.84 9.44c-2.56 2.451-5.818 3.68-9.76 3.68z"></path>
<path d="M70.579 26.72c-4.051 0-7.411-1.229-10.080-3.68-2.56-2.56-3.84-5.709-3.84-9.44s1.28-6.829 3.84-9.28c2.669-2.56 6.029-3.84 10.080-3.84 3.949 0 7.2 1.28 9.76 3.84 2.56 2.451 3.84 5.549 3.84 9.28s-1.28 6.88-3.84 9.44c-2.56 2.451-5.811 3.68-9.76 3.68zM124.941 26.72c-4.051 0-7.411-1.229-10.080-3.68-2.56-2.56-3.84-5.709-3.84-9.44s1.28-6.829 3.84-9.28c2.669-2.56 6.029-3.84 10.080-3.84 3.949 0 7.2 1.28 9.76 3.84 2.56 2.451 3.84 5.549 3.84 9.28s-1.28 6.88-3.84 9.44c-2.56 2.451-5.811 3.68-9.76 3.68z"></path>
</symbol>

<symbol id="icon-heart" viewBox="0 0 32 32">
<path fill="none" opacity="0.5" stroke="#f8f8f8" style="stroke: var(--color1, #f8f8f8)" stroke-linejoin="round" stroke-linecap="round" stroke-miterlimit="4" stroke-width="2.9091" d="M15.991 6.848c-2.666-3.117-7.113-3.956-10.451-1.101-3.341 2.854-3.811 7.625-1.188 11.001 2.182 2.806 8.781 8.724 10.944 10.64 0.243 0.214 0.364 0.321 0.505 0.364 0.057 0.017 0.123 0.028 0.191 0.028s0.133-0.010 0.195-0.029l-0.005 0.001c0.141-0.042 0.262-0.15 0.505-0.364 2.163-1.916 8.762-7.834 10.943-10.64 2.624-3.375 2.211-8.177-1.187-11.001-3.398-2.825-7.785-2.016-10.451 1.101z"></path>
</symbol>
<symbol id="icon-search" viewBox="0 0 32 32">
<path d="M28.948 27.054l-4.948-4.907c1.644-2.036 2.639-4.656 2.639-7.508 0-6.627-5.373-12-12-12s-12 5.373-12 12c0 6.627 5.373 12 12 12 2.852 0 5.472-0.995 7.531-2.657l-0.023 0.018 4.907 4.907c0.242 0.244 0.577 0.394 0.947 0.394s0.705-0.151 0.947-0.394l0-0c0.232-0.24 0.374-0.566 0.374-0.926s-0.143-0.687-0.375-0.927l0 0zM14.667 24c-5.155 0-9.333-4.179-9.333-9.333s4.179-9.333 9.333-9.333v0c5.155 0 9.333 4.179 9.333 9.333s-4.179 9.333-9.333 9.333v0z"></path>
</symbol>
<symbol id="icon-cross" viewBox="0 0 32 32">
<path stroke-linejoin="round" stroke-linecap="round" stroke-miterlimit="4" stroke-width="3.5556" d="M24 8l-16 16M8 8l16 16"></path>
</symbol>
<symbol id="icon-right-arrow" viewBox="0 0 32 32">
<path d="M17.867 16.947c0.244-0.241 0.395-0.576 0.395-0.947s-0.151-0.705-0.395-0.947l-0-0-6.12-6.107c-0.243-0.242-0.394-0.577-0.394-0.947 0-0.737 0.597-1.334 1.334-1.334 0.367 0 0.699 0.148 0.94 0.388l6.12 6.12c0.723 0.724 1.17 1.723 1.17 2.827s-0.447 2.103-1.17 2.827l-6.12 6.12c-0.241 0.239-0.573 0.387-0.94 0.387-0.737 0-1.334-0.597-1.334-1.334 0-0.37 0.151-0.705 0.394-0.947l0-0 6.12-6.107z"></path>
</symbol>
<symbol id="icon-star-rating" viewBox="0 0 32 32">
<path d="M15.411 1.117c0.114-0.213 0.335-0.355 0.589-0.355s0.475 0.142 0.588 0.351l0.002 0.004 4.148 7.861c0.096 0.18 0.268 0.31 0.472 0.346l0.004 0.001 8.759 1.515c0.316 0.056 0.552 0.329 0.552 0.657 0 0.181-0.072 0.345-0.189 0.465l0-0-6.195 6.375c-0.116 0.12-0.188 0.284-0.188 0.464 0 0.034 0.003 0.067 0.007 0.099l-0-0.004 1.265 8.797c0.004 0.029 0.007 0.062 0.007 0.095 0 0.368-0.298 0.667-0.667 0.667-0.107 0-0.209-0.025-0.299-0.070l0.004 0.002-7.976-3.921c-0.086-0.043-0.187-0.069-0.295-0.069s-0.209 0.025-0.299 0.070l0.004-0.002-7.976 3.921c-0.086 0.043-0.187 0.069-0.295 0.069-0.368 0-0.667-0.298-0.667-0.667 0-0.034 0.003-0.067 0.007-0.099l-0 0.004 1.267-8.797c0.004-0.028 0.007-0.061 0.007-0.095 0-0.181-0.072-0.345-0.19-0.466l-6.195-6.373c-0.117-0.12-0.19-0.284-0.19-0.466 0-0.328 0.237-0.601 0.55-0.656l0.004-0.001 8.759-1.515c0.208-0.037 0.38-0.166 0.474-0.343l0.002-0.004 4.147-7.861z"></path>
</symbol>
<symbol id="icon-left-arrow" viewBox="0 0 32 32">
<path opacity="0.5" d="M14.133 16.947c-0.244-0.241-0.395-0.576-0.395-0.946 0-0.186 0.038-0.362 0.107-0.523l-0.003 0.009c0.071-0.169 0.17-0.313 0.292-0.433l0-0 6.12-6.107c0.26-0.244 0.423-0.59 0.423-0.974 0-0.737-0.598-1.335-1.335-1.335-0.381 0-0.724 0.159-0.967 0.415l-0.001 0.001-6.12 6.12c-0.723 0.724-1.17 1.723-1.17 2.827s0.447 2.103 1.17 2.827l6.12 6.12c0.241 0.239 0.573 0.387 0.94 0.387 0.737 0 1.334-0.597 1.334-1.334 0-0.37-0.151-0.705-0.394-0.947l-0-0-6.12-6.107z"></path>
</symbol>
<symbol id="icon-cart" viewBox="0 0 32 32">
<path stroke-linejoin="round" stroke-linecap="round" stroke-miterlimit="4" stroke-width="2.6667" d="M12 29.333c0.736 0 1.333-0.597 1.333-1.333s-0.597-1.333-1.333-1.333v0c-0.736 0-1.333 0.597-1.333 1.333s0.597 1.333 1.333 1.333v0zM26.667 29.333c0.736 0 1.333-0.597 1.333-1.333s-0.597-1.333-1.333-1.333v0c-0.736 0-1.333 0.597-1.333 1.333s0.597 1.333 1.333 1.333v0z"></path>
<path stroke-linejoin="round" stroke-linecap="round" stroke-miterlimit="4" stroke-width="2.4" d="M1.333 1.333h5.333l3.573 17.853c0.251 1.233 1.327 2.147 2.616 2.147 0.018 0 0.036-0 0.054-0.001l-0.003 0h12.96c0.015 0 0.033 0 0.051 0 1.289 0 2.364-0.914 2.613-2.13l0.003-0.017 2.133-11.187h-22.667"></path>
</symbol>
<symbol id="icon-facebook" viewBox="0 0 32 32">
<path d="M19 6h5v-6h-5c-3.86 0-7 3.14-7 7v3h-4v6h4v16h6v-16h5l1-6h-6v-3c0-0.542 0.458-1 1-1z"></path>
</symbol>
<symbol id="icon-instagram" viewBox="0 0 32 32">
<path d="M16 2.881c4.275 0 4.781 0.019 6.462 0.094 1.563 0.069 2.406 0.331 2.969 0.55 0.72 0.27 1.334 0.677 1.836 1.193l0.001 0.001c0.518 0.504 0.926 1.118 1.188 1.804l0.012 0.034c0.219 0.563 0.481 1.412 0.55 2.969 0.075 1.688 0.094 2.194 0.094 6.463s-0.019 4.781-0.094 6.463c-0.069 1.563-0.331 2.406-0.55 2.969-0.27 0.72-0.677 1.334-1.193 1.836l-0.001 0.001c-0.504 0.517-1.117 0.926-1.803 1.188l-0.034 0.012c-0.563 0.219-1.413 0.481-2.969 0.55-1.688 0.075-2.194 0.094-6.463 0.094s-4.781-0.019-6.463-0.094c-1.563-0.069-2.406-0.331-2.969-0.55-0.721-0.27-1.335-0.677-1.837-1.193l-0.001-0.001c-0.517-0.504-0.926-1.117-1.188-1.803l-0.012-0.034c-0.219-0.563-0.481-1.413-0.55-2.969-0.075-1.688-0.094-2.194-0.094-6.463s0.019-4.781 0.094-6.463c0.069-1.563 0.331-2.406 0.55-2.969 0.27-0.721 0.677-1.334 1.193-1.837l0.001-0.001c0.504-0.518 1.118-0.926 1.804-1.188l0.034-0.012c0.563-0.219 1.412-0.481 2.969-0.55 1.681-0.075 2.188-0.094 6.463-0.094zM16 0c-4.344 0-4.887 0.019-6.594 0.094-1.7 0.075-2.869 0.35-3.881 0.744-1.056 0.412-1.95 0.956-2.837 1.85-0.795 0.778-1.424 1.723-1.832 2.777l-0.018 0.054c-0.394 1.019-0.669 2.181-0.744 3.881-0.075 1.713-0.094 2.256-0.094 6.6s0.019 4.887 0.094 6.594c0.075 1.7 0.35 2.869 0.744 3.881 0.413 1.056 0.956 1.95 1.85 2.837 0.778 0.793 1.723 1.421 2.778 1.826l0.053 0.018c1.019 0.394 2.181 0.669 3.881 0.744 1.706 0.075 2.25 0.094 6.594 0.094s4.888-0.019 6.594-0.094c1.7-0.075 2.869-0.35 3.881-0.744 1.050-0.406 1.944-0.956 2.831-1.844s1.438-1.781 1.844-2.831c0.394-1.019 0.669-2.181 0.744-3.881 0.075-1.706 0.094-2.25 0.094-6.594s-0.019-4.887-0.094-6.594c-0.075-1.7-0.35-2.869-0.744-3.881-0.408-1.116-1.033-2.067-1.829-2.842l-0.002-0.002c-0.778-0.793-1.723-1.421-2.777-1.826l-0.053-0.018c-1.019-0.394-2.181-0.669-3.881-0.744-1.712-0.081-2.256-0.1-6.6-0.1z"></path>
<path d="M16 7.781c-4.537 0-8.219 3.681-8.219 8.219s3.681 8.219 8.219 8.219 8.219-3.681 8.219-8.219c-0.001-4.539-3.68-8.218-8.219-8.219h-0zM16 21.331c-2.944 0-5.332-2.387-5.332-5.332s2.387-5.332 5.332-5.332v0c2.945 0 5.331 2.387 5.331 5.332s-2.387 5.332-5.332 5.332v0zM26.462 7.456c0 1.060-0.859 1.919-1.919 1.919s-1.919-0.859-1.919-1.919v0c0-1.060 0.859-1.919 1.919-1.919s1.919 0.859 1.919 1.919v0z"></path>
</symbol>
<symbol id="icon-mail2" viewBox="0 0 32 32">
<path d="M26.667 0h-21.333c-2.934 0-5.334 2.4-5.334 5.334v21.332c0 2.936 2.4 5.334 5.334 5.334h21.333c2.934 0 5.333-2.398 5.333-5.334v-21.332c0-2.934-2.399-5.334-5.333-5.334zM26.667 4c0.25 0 0.486 0.073 0.688 0.198l-11.355 9.388-11.355-9.387c0.202-0.125 0.439-0.198 0.689-0.198h21.333zM5.334 28c-0.063-0-0.125-0.005-0.185-0.014l0.007 0.001 7.051-9.78-0.914-0.914-7.293 7.293v-19.098l12 14.512 12-14.512v19.098l-7.293-7.293-0.914 0.914 7.051 9.78c-0.053 0.008-0.114 0.013-0.177 0.013h-21.333z"></path>
</symbol>
<symbol id="icon-phone" viewBox="0 0 32 32">
<path d="M22 20c-2 2-2 4-4 4s-4-2-6-4-4-4-4-6 2-2 4-4-4-8-6-8-6 6-6 6c0 4 4.109 12.109 8 16s12 8 16 8c0 0 6-4 6-6s-6-8-8-6z"></path>
</symbol>

<symbol id="icon-phone-3" viewBox="0 0 32 32">
<path  opacity="0.8"   stroke-linejoin="round" stroke-linecap="round" stroke-miterlimit="4" stroke-width="2.9091" d="M15.991 6.848c-2.666-3.117-7.113-3.956-10.451-1.101-3.341 2.854-3.811 7.625-1.188 11.001 2.182 2.806 8.781 8.724 10.944 10.64 0.243 0.214 0.364 0.321 0.505 0.364 0.057 0.017 0.123 0.028 0.191 0.028s0.133-0.010 0.195-0.029l-0.005 0.001c0.141-0.042 0.262-0.15 0.505-0.364 2.163-1.916 8.762-7.834 10.943-10.64 2.624-3.375 2.211-8.177-1.187-11.001-3.398-2.825-7.785-2.016-10.451 1.101z"></path>
</symbol>
</defs>
</svg>
